<?xml version="1.0" standalone="no"?>
<!DOCTYPE svg PUBLIC "-//W3C//DTD SVG 20010904//EN"
 "http://www.w3.org/TR/2001/REC-SVG-20010904/DTD/svg10.dtd">
<svg version="1.0" xmlns="http://www.w3.org/2000/svg"
 width="700.000000pt" height="700.000000pt" viewBox="0 0 700.000000 700.000000"
 preserveAspectRatio="xMidYMid meet">
<metadata>
Created by potrace 1.11, written by Peter Selinger 2001-2013
</metadata>
<g transform="translate(0.000000,700.000000) scale(0.100000,-0.100000)"
fill="#000000" stroke="none">
<path d="M3508 6785 c-1 -1 -70 -6 -153 -9 -82 -4 -166 -9 -185 -10 -110 -12
-288 -41 -380 -62 -36 -9 -72 -17 -80 -19 -62 -13 -222 -62 -330 -100 -526
-188 -1034 -544 -1387 -970 -42 -49 -84 -101 -96 -115 -42 -50 -186 -268 -246
-373 -131 -228 -275 -573 -317 -762 -1 -5 -9 -38 -18 -72 -20 -75 -62 -297
-71 -373 -4 -30 -9 -71 -11 -90 -2 -19 -7 -151 -10 -292 l-7 -257 547 0 546 0
1 37 c0 20 1 119 2 219 l2 183 -326 0 -326 0 13 108 c62 511 245 971 549 1377
198 265 454 504 735 686 331 215 771 378 1139 424 30 4 63 8 73 10 117 23 520
22 678 -1 353 -52 614 -131 895 -269 609 -299 1078 -784 1353 -1400 81 -180
156 -415 188 -587 3 -18 7 -40 9 -48 2 -8 4 -19 4 -23 1 -5 4 -6 9 -4 4 3 24
8 44 11 122 19 371 65 375 70 3 2 -9 68 -27 146 -289 1294 -1336 2289 -2646
2514 -50 9 -113 18 -140 22 -27 3 -60 7 -74 9 -14 3 -88 7 -165 11 -77 3 -145
7 -152 9 -6 2 -13 2 -15 0z"/>
<path d="M2784 5333 c-6 -10 -22 -38 -36 -63 -14 -25 -56 -97 -93 -160 -37
-63 -79 -135 -93 -160 -14 -25 -35 -61 -47 -80 -12 -19 -33 -55 -47 -80 -14
-25 -88 -151 -163 -280 -76 -129 -146 -248 -155 -265 -10 -16 -57 -97 -105
-180 -48 -82 -113 -194 -144 -247 l-56 -98 -157 0 -158 0 0 -220 0 -219 279 0
c307 0 285 -4 325 67 19 34 132 228 193 330 12 20 25 44 29 52 4 8 33 58 64
110 31 52 99 168 150 257 52 89 95 161 97 160 2 -3 30 -96 124 -422 39 -132
92 -314 118 -405 27 -91 51 -174 54 -185 3 -11 35 -121 72 -245 37 -124 69
-234 72 -245 3 -11 35 -119 70 -240 36 -121 71 -242 79 -270 7 -27 36 -126 63
-220 28 -93 79 -268 113 -387 35 -119 66 -214 69 -210 4 4 16 39 27 77 12 39
30 102 42 140 12 39 23 77 25 85 2 8 26 92 53 185 56 190 187 637 258 880 25
88 50 174 54 190 7 27 91 315 154 528 42 140 73 247 142 487 36 124 68 233 71
244 4 13 33 -28 105 -150 55 -93 104 -178 109 -189 10 -22 31 -57 39 -65 3 -3
11 -16 18 -30 7 -14 20 -38 30 -55 11 -16 54 -91 97 -165 43 -74 101 -173 129
-220 l51 -85 283 -2 282 -2 0 219 0 220 -158 0 -157 0 -33 58 c-18 31 -43 75
-56 97 -13 22 -56 96 -96 165 -40 69 -81 139 -92 155 -10 17 -21 37 -25 45 -4
8 -46 80 -93 160 -47 80 -89 152 -93 160 -5 8 -18 32 -30 52 -65 109 -244 415
-257 439 -56 105 -173 299 -180 299 -3 0 -14 -28 -24 -62 -9 -35 -28 -99 -41
-143 -13 -44 -51 -174 -85 -290 -33 -115 -71 -246 -85 -290 -32 -110 -145
-497 -150 -515 -5 -18 -59 -206 -140 -480 -56 -193 -74 -253 -135 -465 -18
-60 -35 -114 -38 -119 -3 -5 -31 80 -63 190 -31 109 -71 246 -89 304 -17 58
-33 112 -34 120 -2 8 -21 71 -41 140 -20 69 -64 222 -99 340 -266 917 -371
1270 -376 1270 -3 0 -10 -8 -16 -17z"/>
<path d="M5186 3971 c-4 -5 4 -11 16 -13 20 -3 23 -9 24 -48 3 -83 4 -90 15
-90 6 0 10 15 9 33 -5 88 -1 104 26 110 23 4 24 2 20 -22 -13 -62 -16 -121 -6
-121 5 0 11 9 11 20 1 11 3 25 4 30 1 6 3 20 5 33 1 16 6 9 18 -25 9 -27 21
-49 27 -50 5 -2 14 16 19 40 5 23 13 42 17 42 5 0 8 -3 7 -7 -5 -18 14 -85 21
-77 11 12 -11 145 -24 145 -5 0 -17 -26 -26 -58 l-16 -58 -13 45 c-20 73 -21
75 -88 78 -33 2 -63 -1 -66 -7z"/>
<path d="M5690 3698 c-1 -44 -1 -244 -1 -330 l1 -88 278 1 c152 0 298 0 323 0
l45 -1 -7 -67 c-11 -99 -26 -206 -34 -233 -2 -8 -7 -30 -10 -48 -22 -130 -84
-336 -151 -505 -46 -113 -162 -341 -215 -421 -21 -32 -39 -60 -39 -62 0 -3
-23 -37 -52 -77 -169 -234 -339 -414 -578 -610 -156 -128 -498 -322 -714 -406
-198 -76 -473 -148 -641 -167 -33 -3 -68 -8 -79 -10 -117 -22 -492 -21 -651 2
-16 2 -46 6 -65 8 -29 3 -106 17 -232 41 -176 34 -483 149 -688 257 -151 79
-401 244 -476 313 -6 5 -36 30 -65 55 -93 77 -261 252 -352 366 -245 305 -419
643 -531 1034 -12 43 -56 242 -56 255 0 1 -44 -6 -98 -15 -53 -10 -110 -20
-127 -23 -145 -23 -205 -37 -205 -47 0 -5 14 -68 30 -142 250 -1110 1055
-2008 2135 -2381 117 -40 321 -97 400 -112 303 -54 366 -60 660 -60 201 0 306
5 420 20 92 12 241 38 315 56 47 11 94 22 104 24 11 3 65 19 120 36 650 201
1202 578 1628 1114 57 71 228 320 228 331 0 3 8 18 18 32 31 44 117 210 165
317 113 253 203 550 243 800 3 21 7 46 9 56 2 10 7 49 10 86 4 37 10 88 14
113 4 25 8 150 10 278 l3 232 -546 0 -546 0 0 -22z"/>
<path d="M5070 2969 l0 -180 23 3 c21 3 22 7 22 94 0 103 10 124 60 124 34 0
59 -29 55 -66 -1 -10 -2 -50 -1 -87 1 -65 2 -68 23 -65 24 3 25 17 19 181 -1
16 -12 39 -27 54 -21 21 -32 24 -62 20 -20 -3 -44 -8 -53 -11 -13 -6 -15 3
-14 54 1 56 0 60 -22 60 l-23 0 0 -181z"/>
<path d="M4354 3040 c-54 -22 -83 -98 -65 -168 19 -67 76 -97 156 -80 35 7 45
14 43 26 -4 17 -12 18 -61 9 -16 -3 -39 -1 -52 5 -24 11 -53 63 -41 75 3 4 47
6 97 6 l90 0 -5 41 c-10 76 -87 117 -162 86z m101 -50 c29 -33 14 -45 -56 -44
-70 0 -82 11 -48 43 29 27 80 27 104 1z"/>
<path d="M4593 3040 c-25 -10 -26 -11 -17 -34 4 -11 11 -13 31 -5 40 15 71 10
87 -13 23 -32 20 -38 -18 -36 -98 4 -158 -85 -98 -144 23 -23 75 -29 107 -12
21 11 30 10 52 -1 30 -16 51 -1 29 20 -7 7 -13 45 -14 91 -1 44 -5 87 -8 97
-12 38 -97 59 -151 37z m101 -126 c23 -9 20 -54 -6 -75 -56 -49 -120 9 -68 61
20 20 45 25 74 14z"/>
<path d="M4880 3039 c-58 -21 -90 -125 -57 -188 28 -55 96 -79 165 -58 34 11
37 14 23 36 -8 12 -14 13 -35 3 -35 -16 -84 -4 -103 24 -21 33 -19 91 4 123
22 29 84 41 108 21 10 -9 16 -7 24 8 8 16 6 21 -15 31 -29 13 -79 13 -114 0z"/>
<path d="M5363 3040 c-25 -10 -27 -18 -14 -39 6 -10 13 -11 29 -2 24 13 62 14
78 3 6 -4 15 -17 19 -30 5 -19 3 -23 -12 -22 -76 8 -137 -32 -135 -90 2 -61
57 -90 121 -64 24 10 38 11 45 4 12 -12 56 -14 56 -2 0 4 -5 13 -11 19 -7 7
-13 51 -15 100 -3 83 -4 89 -31 110 -30 24 -88 30 -130 13z m115 -157 c3 -25
-2 -35 -22 -48 -50 -33 -103 0 -77 49 15 27 32 35 71 33 20 -2 26 -8 28 -34z"/>
<path d="M5597 3036 c-2 -9 -1 -213 2 -238 1 -5 10 -8 21 -8 11 0 20 3 21 8 0
4 1 49 2 100 2 101 8 112 60 112 36 0 44 -24 42 -120 -2 -89 1 -100 26 -100
17 0 19 8 19 91 0 104 9 129 48 129 50 0 54 -10 56 -119 1 -99 2 -101 24 -101
24 0 24 0 20 111 -3 102 -5 112 -27 130 -27 22 -78 25 -107 5 -17 -12 -22 -12
-39 0 -25 19 -75 18 -103 -2 -19 -13 -23 -13 -28 -1 -6 16 -32 18 -37 3z"/>
</g>
</svg>
